<?xml version="1.0" encoding="UTF-8" standalone="no"?>
<!-- Created with Inkscape (http://www.inkscape.org/) -->

<svg
   width="210mm"
   height="297mm"
   viewBox="0 0 210 297"
   version="1.1"
   id="svg1"
   xmlns:xlink="http://www.w3.org/1999/xlink"
   xmlns="http://www.w3.org/2000/svg"
   xmlns:svg="http://www.w3.org/2000/svg">
  <defs
     id="defs1">
    <linearGradient
       id="linearGradient9">
      <stop
         style="stop-color:#23187d;stop-opacity:1;"
         offset="0"
         id="stop9" />
      <stop
         style="stop-color:#23187d;stop-opacity:0.50980392;"
         offset="0.41927713"
         id="stop11" />
      <stop
         style="stop-color:#23187d;stop-opacity:0.37254902;"
         offset="0.54216868"
         id="stop12" />
      <stop
         style="stop-color:#23187d;stop-opacity:0;"
         offset="0.89156628"
         id="stop10" />
    </linearGradient>
    <linearGradient
       id="linearGradient7">
      <stop
         style="stop-color:#23187d;stop-opacity:1;"
         offset="0"
         id="stop7" />
      <stop
         style="stop-color:#2d0c47;stop-opacity:1;"
         offset="0.31084338"
         id="stop13" />
      <stop
         style="stop-color:#160037;stop-opacity:1;"
         offset="0.68674701"
         id="stop8" />
    </linearGradient>
    <linearGradient
       xlink:href="#linearGradient7"
       id="linearGradient8"
       x1="105"
       y1="297"
       x2="105"
       y2="0"
       gradientUnits="userSpaceOnUse" />
    <linearGradient
       xlink:href="#linearGradient9"
       id="linearGradient10"
       x1="106.16429"
       y1="259.85727"
       x2="105"
       y2="0"
       gradientUnits="userSpaceOnUse" />
  </defs>
  <g
     id="layer1">
    <rect
       style="opacity:1;fill:url(#linearGradient8);fill-opacity:1;stroke:#000000;stroke-width:0.264999;stroke-opacity:1"
       id="rect6"
       width="210"
       height="297"
       x="0"
       y="0" />
    <path
       style="display:inline;opacity:1;fill:url(#linearGradient10);fill-opacity:1;stroke:#000000;stroke-width:0.264999;stroke-opacity:1"
       d="m 0,0 v 244.0959 c 1.703707,16.72298 25.88283,13.72 25.88283,0 v -45.67122 c 0,-14.02984 21.60978,-12.39014 21.60978,0 v 48.89659 c 0,16.75177 25.174683,16.32282 25.174683,0 v -54.1862 c 0,-16.22456 24.609824,-14.12937 24.609824,0 v 54.70225 c 0,12.52363 22.964623,11.7062 22.964623,0 V 136.62661 c 0,-9.42684 14.30514,-8.32057 14.30514,0 v 90.9554 c 0,12.63373 19.96067,12.50054 19.96067,0 v -87.98806 c 0,-14.90783 23.46807,-12.56947 23.46807,0 v 16.64291 c 0,11.51594 21.22314,13.24543 21.22314,0 v -21.8035 C 200.28227,121.33441 210,126.54744 210,126.54744 V 0 Z"
       id="path6" />
  </g>
</svg>
