<?xml version="1.0" encoding="UTF-8" standalone="no"?>
<!-- Created with Inkscape (http://www.inkscape.org/) -->

<svg
   width="93.055351mm"
   height="86.970619mm"
   viewBox="0 0 93.055351 86.970619"
   version="1.1"
   id="svg1"
   xmlns="http://www.w3.org/2000/svg"
   xmlns:svg="http://www.w3.org/2000/svg">
  <defs
     id="defs1" />
  <g
     id="layer13"
     transform="matrix(-1,0,0,1,140.59324,-105.03959)"
     style="mix-blend-mode:normal">
    <path
       style="display:inline;fill:none;stroke:#ffffff;stroke-width:0.765;stroke-dasharray:none;stroke-opacity:1"
       d="m 47.920392,140.58502 c 1.51159,4.74756 5.36317,6.15843 9.08545,6.6214 l 35.09601,-0.24627 c 2.30933,-0.32291 4.46996,-1.42653 6.03806,-5.64094 l 1.3217,-19.55987 c 0.743918,-11.00921 14.520168,-7.88541 15.232778,0.36253 1.31187,15.18397 0.91474,29.88368 0.62151,44.74297 0.23562,7.86271 -3.7068,9.20768 -8.78337,8.78338 H 57.831802 c -5.80594,0 -8.6533,0.4742 -9.91141,-7.25036 z"
       id="path40" />
    <path
       style="display:inline;fill:none;fill-opacity:1;stroke:#ffffff;stroke-width:0.465;stroke-dasharray:none;stroke-opacity:1"
       d="m 114.92567,125.03036 c 3.62657,0.60789 6.80553,2.42306 7.39783,4.48211 -2.29688,-1.4461 -5.1454,-0.363 -7.21917,0.20299 z"
       id="path46" />
    <g
       id="g15"
       transform="matrix(0.42060983,0.13606528,-0.11086741,0.51620575,76.750732,75.264288)"
       style="display:inline;fill:none;fill-opacity:1;stroke:#ffffff;stroke-opacity:1">
      <path
         id="rect13"
         style="display:inline;fill:none;fill-opacity:1;stroke:#ffffff;stroke-width:0.830086;stroke-dasharray:none;stroke-opacity:1"
         d="m 163.57853,103.26041 c -1.26302,0.3912 -2.17579,1.56518 -2.17579,2.96009 l 2.4e-4,10.82865 c 2.18963,-0.57887 4.25607,-1.40537 6.19832,-2.47972 l -2.5e-4,-8.34896 c 0,-1.71681 -1.3826,-3.09826 -3.09941,-3.09826 -0.3219,0 -0.63165,0.0479 -0.92311,0.1382 z m 4.20828,28.69633 c -2.09795,0.61615 -4.17148,1.20902 -6.19188,1.2723 l -0.19137,4.98382 c -0.0661,1.72153 1.38145,3.09857 3.09826,3.09857 1.71681,0 3.1098,-1.60919 3.1098,-3.326 z" />
      <path
         id="rect14"
         style="fill:none;fill-opacity:1;stroke:#ffffff;stroke-width:0.830086;stroke-dasharray:none;stroke-opacity:1"
         d="m 163.09488,96.405441 h 2.81406 v 7.051199 c -0.91428,-0.42616 -1.85005,-0.46657 -2.81406,0 z" />
      <rect
         style="fill:none;fill-opacity:1;stroke:#ffffff;stroke-width:0.830086;stroke-dasharray:none;stroke-opacity:1"
         id="rect15"
         width="4.8927679"
         height="36.925064"
         x="162.04665"
         y="59.480373" />
    </g>
    <path
       style="display:inline;fill:#ffffff;fill-opacity:1;stroke:#ffffff;stroke-width:0.317736;stroke-opacity:1"
       d="m 114.39035,119.14206 -16.971078,0.44453 -2.70816,2.73402 2.80604,-1.19294 9.963828,-0.0823 2.62999,3.11858 4.81657,0.0831 z"
       id="path50" />
    <path
       style="display:inline;fill:none;stroke:#ffffff;stroke-width:0.6;stroke-dasharray:none;stroke-opacity:1"
       d="m 101.29085,166.84262 c -10.998848,0.50564 -18.567938,0.27415 -29.220168,-0.76307 -4.42885,-0.45408 -12.45117,-3.00877 -4.90241,-4.29014 m 33.858558,-10.10522 c 2.07053,0.24094 -20.024618,0.87035 -41.716408,0.44208 -5.76863,-0.11396 -4.97879,3.01409 0.0882,4.50789 2.47044,0.72827 4.08278,0.76293 4.08278,0.76293 -4.9454,0.84055 -6.58894,1.99302 -0.18742,3.95645 5.38785,0.69539 11.47208,1.44084 15.42017,1.22617"
       id="path10" />
    <path
       style="display:inline;fill:none;stroke:#ffffff;stroke-width:0.6;stroke-dasharray:none;stroke-opacity:1"
       d="m 59.398652,156.63416 c 1.43389,0.29464 2.78266,0.62299 4.08278,0.76293 11.73485,1.26314 18.01216,0.99734 22.10598,1.07073"
       id="path12" />
    <path
       style="display:inline;fill:none;fill-opacity:1;stroke:#ffffff;stroke-width:0.35;stroke-dasharray:none;stroke-opacity:1"
       d="m 129.51909,163.10039 c -2.07252,-0.1178 -1.43783,1.03076 -0.75328,1.81382 0.70935,0.81143 0.94517,1.91296 7.58608,0.63216 1.67713,-0.2598 1.24274,-2.86854 0.29884,-3.09817 -3.17662,0.66892 -4.00384,0.70939 -7.13166,0.65219 z"
       id="path45" />
    <path
       style="display:inline;fill:none;fill-opacity:1;stroke:#ffffff;stroke-width:0.35;stroke-dasharray:none;stroke-opacity:1"
       d="m 157.94559,126.45043 c 0.35013,1.31668 0.031,2.05312 -0.17187,2.47867 -0.0498,0.10441 -0.18037,0.21049 -0.29343,0.23563 -3.25784,0.72436 -5.32263,0.82332 -8.34383,0.74268 -1.51414,-1.19297 -0.87477,-2.82342 0.31092,-2.59992 3.36291,0.23551 6.21602,-0.25259 8.06555,-1.05308 0.18341,-0.0794 0.38129,0.003 0.43266,0.19602 z"
       id="path44"
       transform="translate(-20.309102,33.170943)" />
    <path
       style="display:inline;fill:none;fill-opacity:1;stroke:#ffffff;stroke-width:0.35;stroke-dasharray:none;stroke-opacity:1"
       d="m 134.90078,157.09225 c -1.67084,0.71982 -4.00907,0.4805 -6.20765,0.78332 -1.40935,0.49788 -0.97728,1.77928 0.44517,2.60286 1.56638,0.19463 5.28575,0.18492 8.39449,-1.20384 0.79798,-0.61822 1.19511,-3.7502 -1.11045,-4.3759 -8.56103,1.01927 -13.41558,0.33879 -21.10644,-2.81911 v 11.8615 c 5.98808,1.59768 10.86429,3.89417 19.67437,2.3076 0.58353,-0.14094 0.95426,-0.40157 1.25688,-0.70052"
       id="path15-8" />
    <path
       style="display:inline;fill:none;fill-opacity:1;stroke:#ffffff;stroke-width:0.465;stroke-dasharray:none;stroke-opacity:1"
       d="m 112.69753,117.61862 c 2.6886,-4.25605 0.39287,-10.45314 -2.73574,-11.79918 0.93402,4.03866 1.01681,7.57346 -1.36062,9.22049 1.37106,0.59213 2.62159,0.95711 4.09636,2.57869 z"
       id="path47" />
    <path
       style="display:inline;fill:none;fill-opacity:1;stroke:#ffffff;stroke-width:0.465;stroke-dasharray:none;stroke-opacity:1"
       d="m 108.60117,115.03993 c 0.0906,-3.29005 0.16392,-6.93984 -3.91437,-9.49149 0.94567,3.57848 0.87414,6.68749 -0.25262,9.30946 1.66565,-0.4453 2.38986,-0.16263 4.16699,0.18203 z"
       id="path48" />
    <path
       style="display:inline;fill:none;fill-opacity:1;stroke:#ffffff;stroke-width:0.465;stroke-dasharray:none;stroke-opacity:1"
       d="m 104.43418,114.8579 c -0.45129,-3.69284 -2.86183,-6.25571 -6.052598,-6.70085 2.237358,3.36097 2.840678,5.99505 2.308768,9.59243 0.33509,-1.19406 1.34903,-1.9502 3.74383,-2.89158 z"
       id="path49" />
    <path
       style="display:inline;fill:none;fill-opacity:1;stroke:#ffffff;stroke-width:0.965;stroke-dasharray:none;stroke-opacity:1"
       d="m 62.178112,189.40111 h 10.4227 -5.19648 l 4.52059,-2.19205 -4.52059,2.19205 4.4186,2.17625 -4.4186,-2.17625 z"
       id="path57" />
    <path
       style="display:inline;fill:none;fill-opacity:1;stroke:#ffffff;stroke-width:0.6;stroke-dasharray:none;stroke-opacity:1"
       d="m 67.389462,189.40111 0.0149,-13.75289"
       id="path58" />
    <path
       style="display:inline;fill:none;fill-opacity:1;stroke:#ffffff;stroke-width:0.965;stroke-dasharray:none;stroke-opacity:1"
       d="m 94.883382,189.40111 h 10.422698 -5.19647 l 4.52059,-2.19205 -4.52059,2.19205 4.4186,2.17625 -4.4186,-2.17625 z"
       id="path59" />
    <path
       style="display:inline;fill:none;fill-opacity:1;stroke:#ffffff;stroke-width:0.6;stroke-dasharray:none;stroke-opacity:1"
       d="m 100.09473,189.40111 0.0149,-13.75289"
       id="path60" />
  </g>
</svg>
