<?xml version="1.0" encoding="UTF-8" standalone="no"?>
<!-- Created with Inkscape (http://www.inkscape.org/) -->

<svg
   width="93.055351mm"
   height="88.025772mm"
   viewBox="0 0 93.055351 88.025772"
   version="1.1"
   id="svg1"
   xml:space="preserve"
   xmlns="http://www.w3.org/2000/svg"
   xmlns:svg="http://www.w3.org/2000/svg"><defs
     id="defs1" /><g
     id="layer2"
     transform="translate(-67.846986,-70.813482)"><path
       style="display:inline;opacity:1;fill:none;stroke:#ffffff;stroke-width:0.765;stroke-dasharray:none;stroke-opacity:1"
       d="m 68.229492,107.41407 c 1.511585,4.74756 5.363167,6.15843 9.085444,6.6214 l 35.096014,-0.24627 c 2.30933,-0.32291 4.46996,-1.42653 6.03806,-5.64094 l 6.46279,-19.559865 c 4.1715,-12.625206 18.84636,-9.559347 16.91723,-0.06744 -1.50005,7.380705 -3.05099,14.739595 -5.5295,21.700965 -0.55241,2.13778 -0.59145,3.16918 -0.67453,4.54113 v 18.93084 c 0.23562,7.86271 -3.7068,9.20768 -8.78337,8.78338 H 78.140895 c -5.805932,0 -8.653296,0.4742 -9.911403,-7.25036 z"
       id="path40" /><g
       id="layer3"><path
         style="fill:none;stroke:#ffffff;stroke-width:0.6;stroke-dasharray:none;stroke-opacity:1"
         d="m 121.59995,133.67167 c -10.99885,0.50564 -18.56794,0.27415 -29.220171,-0.76307 -4.428849,-0.45408 -12.451167,-3.00877 -4.902409,-4.29014 m 33.85856,-10.10522 c 2.07053,0.24094 -20.02462,0.87035 -41.716406,0.44208 -5.768638,-0.11396 -4.978792,3.01409 0.08823,4.50789 2.47044,0.72827 4.082781,0.76293 4.082781,0.76293 -4.945401,0.84055 -6.588946,1.99302 -0.187422,3.95645 5.387849,0.69539 11.472075,1.44084 15.420164,1.22617"
         id="path10" /><path
         style="fill:none;stroke:#ffffff;stroke-width:0.6;stroke-dasharray:none;stroke-opacity:1"
         d="m 79.707754,123.46321 c 1.433884,0.29464 2.78266,0.62299 4.082781,0.76293 11.734843,1.26314 18.012155,0.99734 22.105975,1.07073"
         id="path12" /></g><g
       id="layer6"
       style="display:inline;opacity:1;fill:none"><path
         style="display:inline;opacity:1;fill:none;fill-opacity:1;stroke:#ffffff;stroke-width:0.35;stroke-dasharray:none;stroke-opacity:1"
         d="m 149.82819,129.92945 c -2.07252,-0.1178 -1.43783,1.03076 -0.75328,1.81382 0.70935,0.81143 0.94517,1.91296 7.58608,0.63216 1.67713,-0.2598 1.24274,-2.86854 0.29884,-3.09817 -3.17662,0.66892 -4.00384,0.70939 -7.13166,0.65219 z"
         id="path45" /><path
         style="display:inline;opacity:1;fill:none;fill-opacity:1;stroke:#ffffff;stroke-width:0.35;stroke-dasharray:none;stroke-opacity:1"
         d="m 157.94559,126.45043 c 0.35013,1.31668 0.031,2.05312 -0.17187,2.47867 -0.0498,0.10441 -0.18037,0.21049 -0.29343,0.23563 -3.25784,0.72436 -5.32263,0.82332 -8.34383,0.74268 -1.51414,-1.19297 -0.87477,-2.82342 0.31092,-2.59992 3.36291,0.23551 6.21602,-0.25259 8.06555,-1.05308 0.18341,-0.0794 0.38129,0.003 0.43266,0.19602 z"
         id="path44" /><path
         style="display:inline;fill:none;fill-opacity:1;stroke:#ffffff;stroke-width:0.35;stroke-dasharray:none;stroke-opacity:1"
         d="m 155.20988,123.92131 c -1.67084,0.71982 -4.00907,0.4805 -6.20765,0.78332 -1.40935,0.49788 -0.97728,1.77928 0.44517,2.60286 1.56638,0.19463 5.28575,0.18492 8.39449,-1.20384 0.79798,-0.61822 1.19511,-3.7502 -1.11045,-4.3759 -8.56103,1.01927 -13.41558,0.33879 -21.10644,-2.81911 v 11.8615 c 5.98808,1.59768 10.86429,3.89417 19.67437,2.3076 0.58353,-0.14094 0.95426,-0.40157 1.25688,-0.70052"
         id="path15-8" /><g
         id="layer5"
         style="display:inline;opacity:1;fill:#ffffff;fill-opacity:1"><g
           id="g15"
           transform="matrix(0.42060983,0.13606528,-0.11086741,0.51620575,97.059826,42.09334)"
           style="opacity:1;fill:none;fill-opacity:1;stroke:#ffffff;stroke-opacity:1"><path
             id="rect13"
             style="display:inline;fill:none;fill-opacity:1;stroke:#ffffff;stroke-width:0.830086;stroke-dasharray:none;stroke-opacity:1"
             d="m 163.57853,103.26041 c -1.26302,0.3912 -2.17579,1.56518 -2.17579,2.96009 l 2.4e-4,10.82865 c 2.18963,-0.57887 4.25607,-1.40537 6.19832,-2.47972 l -2.5e-4,-8.34896 c 0,-1.71681 -1.3826,-3.09826 -3.09941,-3.09826 -0.3219,0 -0.63165,0.0479 -0.92311,0.1382 z m 4.20828,28.69633 c -2.09795,0.61615 -4.17148,1.20902 -6.19188,1.2723 l -0.19137,4.98382 c -0.0661,1.72153 1.38145,3.09857 3.09826,3.09857 1.71681,0 3.1098,-1.60919 3.1098,-3.326 z" /><path
             id="rect14"
             style="fill:none;fill-opacity:1;stroke:#ffffff;stroke-width:0.830086;stroke-dasharray:none;stroke-opacity:1"
             d="m 163.09488,96.405441 h 2.81406 v 7.051199 c -0.91428,-0.42616 -1.85005,-0.46657 -2.81406,0 z" /><rect
             style="fill:none;fill-opacity:1;stroke:#ffffff;stroke-width:0.830086;stroke-dasharray:none;stroke-opacity:1"
             id="rect15"
             width="4.8927679"
             height="36.925064"
             x="162.04665"
             y="59.480373" /></g></g></g><g
       id="layer8"><path
         style="fill:none;fill-opacity:1;stroke:#ffffff;stroke-width:0.465;stroke-dasharray:none;stroke-opacity:1"
         d="m 141.78028,85.092236 c 2.5248,-4.594044 2.60308,-8.750965 -0.84976,-12.817844 0.50361,3.121924 -0.60941,7.518791 -3.76369,8.274444 1.633,0.496342 4.03703,1.803471 4.61345,4.5434 z"
         id="path47" /><path
         style="fill:none;fill-opacity:1;stroke:#ffffff;stroke-width:0.465;stroke-dasharray:none;stroke-opacity:1"
         d="m 137.16683,80.548836 c 2.08804,-3.712589 -1.54576,-7.829099 -3.83095,-9.172266 1.50321,3.447405 0.51926,6.619296 -0.95416,9.201513 1.45593,-0.462315 3.5449,-0.178268 4.78511,-0.02925 z"
         id="path48" /><path
         style="fill:none;fill-opacity:1;stroke:#ffffff;stroke-width:0.465;stroke-dasharray:none;stroke-opacity:1"
         d="m 132.38172,80.578083 c -1.08003,-3.987196 -2.59102,-6.369652 -6.93146,-6.58404 2.36179,1.576977 2.27395,8.120143 1.40843,10.656856 0.73474,-1.24982 3.29014,-3.640893 5.52303,-4.072816 z"
         id="path49" /></g><g
       id="layer9"><path
         style="fill:none;fill-opacity:1;stroke:#ffffff;stroke-width:0.304296;stroke-opacity:1"
         d="m 141.97628,88.013608 -18.44594,-3.273567 -3.17877,2.433625 3.26831,-0.888625 11.38361,2.665883 1.10759,3.021328 5.13036,1.465873 z"
         id="path50" /></g><g
       id="layer10"><path
         style="display:inline;fill:none;fill-opacity:1;stroke:#ffffff;stroke-width:0.965;stroke-dasharray:none;stroke-opacity:1"
         d="m 82.487208,156.23016 h 10.422699 -5.196474 l 4.520591,-2.19205 -4.520591,2.19205 4.418597,2.17625 -4.418597,-2.17625 z"
         id="path57" /><path
         style="fill:none;fill-opacity:1;stroke:#ffffff;stroke-width:0.6;stroke-dasharray:none;stroke-opacity:1"
         d="m 87.698555,156.23016 0.01487,-13.75289"
         id="path58" /><path
         style="display:inline;fill:none;fill-opacity:1;stroke:#ffffff;stroke-width:0.965;stroke-dasharray:none;stroke-opacity:1"
         d="m 115.19248,156.23016 h 10.4227 -5.19647 l 4.52059,-2.19205 -4.52059,2.19205 4.4186,2.17625 -4.4186,-2.17625 z"
         id="path59" /><path
         style="fill:none;fill-opacity:1;stroke:#ffffff;stroke-width:0.6;stroke-dasharray:none;stroke-opacity:1"
         d="m 120.40383,156.23016 0.0149,-13.75289"
         id="path60" /></g><path
       style="fill:none;fill-opacity:1;stroke:#ffffff;stroke-width:0.465;stroke-dasharray:none;stroke-opacity:1"
       d="m 140.73864,93.776811 c 3.62657,0.607884 4.59771,2.96331 5.19001,5.022363 -2.07377,-1.803071 -4.14755,-0.987706 -6.22132,-0.42171 z"
       id="path46" /></g></svg>
